<svg id="Capa_1" enable-background="new 0 0 512 512" height="512" viewBox="0 0 512 512" width="512" xmlns="http://www.w3.org/2000/svg"><g><g><path d="m245.996 3.823c-36.825 32.956-66.31 74.366-85.277 119.771-1.34 3.094-1.613 6.585-.709 9.904 1.215 4.464 4.422 8.117 8.691 9.9 27.685 11.563 57.056 17.427 87.298 17.427h.001l10-80.413-10-80.412c-3.578 0-7.157 1.274-10.004 3.823z" fill="#e1bb78"/><path d="m351.359 123.785c-18.965-45.477-48.48-86.959-85.357-119.963-2.847-2.547-6.424-3.822-10.002-3.822v160.825c30.24 0 59.61-5.863 87.294-17.425 7.642-3.191 11.252-11.971 8.065-19.615z" fill="#c47e4e"/></g><g><path d="m256 120.028c-36.801-30.84-81.24-46.458-132.303-46.458-8.284 0-15 6.716-15 15 0 46.518 13.729 97.164 36.728 135.48 27.835 46.377 67.104 71.917 110.575 71.917l10-109.545-10-66.394c0-.001 0-.001 0 0z" fill="#c47e4e"/><path d="m388.303 73.57c-51.062 0-95.503 15.618-132.303 46.458v175.94c43.47 0 82.74-25.54 110.576-71.917 22.997-38.316 36.728-88.963 36.728-135.48-.001-8.286-6.716-15.001-15.001-15.001z" fill="#a05f4b"/></g><g><path d="m245.637 129.37c-20.201 19.301-37.725 43.582-52.084 72.169-3.559 7.084-6.952 14.487-10.087 22.003-1.932 4.63-1.42 9.918 1.361 14.092 2.781 4.175 7.466 6.683 12.481 6.683l58.692.002 10-57.897-10-61.206c-3.732 0-7.464 1.385-10.363 4.154z" fill="#a05f4b"/><path d="m328.534 223.547c-3.13-7.507-6.524-14.911-10.087-22.007-.001 0-.001-.001-.001-.001-14.359-28.588-31.884-52.869-52.086-72.169-2.898-2.769-6.629-4.154-10.36-4.154v119.103l58.69.002c5.016 0 9.7-2.508 12.482-6.682s3.294-9.463 1.362-14.092z" fill="#724435"/></g><g><path d="m245.01 215.24c-45.46-34.688-99.095-52.277-159.412-52.277-8.284 0-15 6.716-15 15 0 56.438 18.034 117.365 48.241 162.982 35.235 53.21 83.946 82.514 137.161 82.514l10-127.492-10-71.873c-3.594-3.056-7.256-6.005-10.99-8.854z" fill="#e1bb78"/><path d="m426.402 162.962c-60.316 0-113.95 17.588-159.41 52.276-3.733 2.849-7.397 5.801-10.992 8.855v199.364c53.215 0 101.927-29.304 137.161-82.514 30.207-45.617 48.241-106.545 48.241-162.982 0-8.283-6.715-14.999-15-14.999z" fill="#c47e4e"/></g><g><path d="m245.705 233.006c-10.837 10.225-21.134 21.627-30.606 33.891-11.705 15.153-22.417 31.957-31.841 49.943-5.192 9.912-10.06 20.295-14.466 30.859-1.931 4.63-1.419 9.918 1.362 14.092 2.782 4.174 7.466 6.682 12.481 6.682l73.365.002 10-72.508-10-67.051c-3.702 0-7.405 1.363-10.295 4.09z" fill="#a05f4b"/><path d="m343.208 347.704c-4.41-10.574-9.278-20.959-14.468-30.864-9.422-17.984-20.134-34.788-31.84-49.942-9.471-12.262-19.769-23.665-30.607-33.892-2.889-2.726-6.591-4.09-10.293-4.09v139.559l73.362.002h.001c5.016 0 9.7-2.508 12.482-6.682 2.782-4.173 3.294-9.461 1.363-14.091z" fill="#724435"/></g><g><path d="m230.943 327.599c-55.153-37.461-119.681-57.262-186.606-57.262-8.284 0-15 6.716-15 15 0 60.544 23.577 117.464 66.388 160.275s99.731 66.388 160.275 66.388l10-88.543-10-77.083c-8.023-6.617-16.382-12.883-25.057-18.775z" fill="#c47e4e"/><path d="m467.663 270.337c-66.925 0-131.451 19.8-186.604 57.26-8.676 5.893-17.036 12.16-25.06 18.777v165.626c60.544 0 117.464-23.577 160.275-66.388 42.811-42.812 66.388-99.731 66.388-160.275.001-8.284-6.715-15-14.999-15z" fill="#a05f4b"/></g><g><path d="m245.996 355.017c-13.359 11.957-25.843 25.087-37.104 39.025-19.895 24.625-36.128 51.847-48.249 80.91-1.682 4.033-1.521 8.6.439 12.505 1.643 3.271 4.411 5.805 7.758 7.165 27.658 11.532 56.981 17.378 87.16 17.378l10-80.403-10-80.403c-3.578 0-7.156 1.274-10.004 3.823z" fill="#a05f4b"/><path d="m351.357 474.952c-12.121-29.063-28.354-56.285-48.249-80.911v.001c-11.261-13.939-23.744-27.07-37.104-39.026-2.848-2.548-6.425-3.822-10.003-3.822v160.806c30.181 0 59.509-5.849 87.169-17.382 3.632-1.479 6.547-4.325 8.108-7.935 1.618-3.737 1.646-7.972.079-11.731z" fill="#724435"/></g></g></svg>