<svg id="Capa_1" enable-background="new 0 0 512 512" height="512" viewBox="0 0 512 512" width="512" xmlns="http://www.w3.org/2000/svg"><g><path d="m310.575 65.053c-13.955-22.705-30.515-43.769-49.556-62.957-1.81-1.824-3.92-2.096-5.018-2.096s-3.209.272-5.019 2.097c-19.04 19.187-35.6 40.251-49.555 62.956 19.62 8.629 37.851 20.086 54.573 34.292 16.723-14.206 34.954-25.663 54.575-34.292z"/><path d="m234.259 120.28c-30.066-24.79-65.522-39.401-105.473-43.446-.261-.026-.513-.039-.756-.039-2.449 0-4.091 1.242-4.888 2.032-.888.882-2.336 2.797-2.062 5.724 2.322 24.766 7.976 49.445 16.31 72.184 19.644 4.866 38.452 11.665 56.317 20.346 11.951-21.472 25.498-40.444 40.552-56.801z"/><path d="m390.92 84.551c.274-2.926-1.175-4.842-2.063-5.724-.876-.869-2.768-2.282-5.644-1.993-39.952 4.046-75.404 18.653-105.472 43.446 15.053 16.356 28.6 35.328 40.549 56.799 17.865-8.682 36.673-15.479 56.318-20.345 8.336-22.739 13.99-47.418 16.312-72.183z"/><path d="m292.046 191.609c-10.667-19.146-22.706-36.068-36.045-50.628-13.339 14.561-25.379 31.483-36.046 50.63 12.572 7.845 24.604 16.696 36.046 26.539 11.443-9.845 23.474-18.696 36.045-26.541z"/><path d="m434.6 186.184c.23-2.833-1.179-4.707-2.04-5.572-.836-.839-2.646-2.217-5.363-2.009-55.712 4.266-105.219 23.969-147.145 58.562-.715.59-1.43 1.186-2.14 1.784 19.488 20.36 36.926 43.958 52.099 70.582 26.226-13.015 53.864-22.922 82.395-29.516 11.852-29.471 19.578-61.642 22.194-93.831z"/><path d="m256 357.799c6.46-5.386 13.111-10.566 19.946-15.534 9.002-6.543 18.259-12.663 27.742-18.352-13.878-24.263-29.806-45.789-47.689-64.414-17.881 18.624-33.81 40.151-47.688 64.414 9.484 5.689 18.741 11.81 27.744 18.353 6.837 4.968 13.485 10.147 19.945 15.533z"/><path d="m234.089 238.948c-.71-.598.716.59 0 0-41.926-34.594-93.571-56.08-149.284-60.346-.187-.015-.37-.021-.549-.021-2.415 0-4.036 1.248-4.814 2.03-.861.865-2.271 2.739-2.04 5.572 2.616 32.189 10.341 64.361 22.194 93.831 28.531 6.594 56.169 16.501 82.396 29.516 15.173-26.623 32.613-50.223 52.097-70.582z"/><path d="m293.584 366.532c-5.143 3.737-10.171 7.604-15.083 11.601 32.431 31.751 58.933 69.098 78.156 110.334 18.576-9.212 35.952-21.017 51.595-35.207 41.47-37.62 67.469-88.865 73.209-144.295.301-2.906-1.097-4.835-1.956-5.726-.844-.876-2.703-2.315-5.524-2.122-65.169 4.386-127.549 27.006-180.397 65.415z"/><path d="m328.927 499.988c-17.951-38.138-42.684-72.637-72.927-101.891-30.243 29.254-54.975 63.754-72.926 101.892 23.263 7.896 47.861 12.011 72.926 12.011s49.664-4.115 72.927-12.012z"/><path d="m103.748 453.26c15.644 14.19 33.019 25.995 51.595 35.207 19.224-41.235 45.726-78.584 78.156-110.334-4.912-3.996-9.938-7.861-15.08-11.599-52.849-38.41-115.229-61.031-180.397-65.417-.175-.012-.345-.017-.512-.017-2.553 0-4.223 1.317-5.015 2.139-.859.891-2.257 2.819-1.956 5.726 5.74 55.43 31.74 106.675 73.209 144.295z"/></g></svg>